<?xml version="1.0" standalone="no"?>
<!DOCTYPE svg PUBLIC "-//W3C//DTD SVG 20010904//EN"
 "http://www.w3.org/TR/2001/REC-SVG-20010904/DTD/svg10.dtd">
<svg version="1.0" xmlns="http://www.w3.org/2000/svg"
 width="460.000000pt" height="460.000000pt" viewBox="0 0 460.000000 460.000000"
 preserveAspectRatio="xMidYMid meet">

<g transform="translate(0.000000,460.000000) scale(0.100000,-0.100000)"
fill="#000000" stroke="none">
<path d="M2030 4229 c-110 -14 -249 -49 -380 -96 -154 -56 -180 -69 -302 -150
-190 -128 -339 -281 -443 -458 -146 -248 -200 -416 -211 -655 -3 -69 -10 -138
-16 -153 -8 -20 -8 -43 0 -80 6 -29 19 -97 28 -152 30 -183 101 -349 220 -519
47 -68 242 -270 327 -340 33 -27 58 -60 84 -112 36 -73 36 -75 30 -166 -8
-113 -45 -259 -79 -314 -43 -67 -118 -126 -254 -198 -178 -94 -308 -151 -406
-176 -46 -11 -132 -46 -193 -76 -115 -58 -333 -199 -398 -258 l-38 -34 2 -76
c2 -72 3 -75 22 -65 14 8 16 13 8 19 -9 5 -8 11 4 24 34 34 82 66 99 66 9 0
15 4 11 9 -8 14 12 23 36 16 16 -5 18 -10 8 -21 -6 -8 -18 -14 -25 -14 -7 0
-11 -6 -8 -14 3 -8 1 -17 -5 -21 -6 -3 -9 0 -5 8 3 8 -2 17 -10 20 -11 4 -13
1 -9 -10 5 -12 1 -14 -17 -8 -15 5 -20 4 -16 -4 4 -6 15 -11 24 -12 11 0 12
-3 5 -6 -7 -2 -13 -14 -13 -24 0 -23 -17 -59 -28 -59 -4 0 -14 5 -22 10 -13 9
-13 11 0 19 8 6 11 13 7 17 -4 4 -16 -1 -27 -11 -16 -14 -18 -21 -8 -27 8 -6
5 -7 -9 -3 -22 6 -23 4 -23 -59 l0 -66 65 0 c58 0 65 2 65 20 0 11 7 20 15 20
8 0 15 -9 15 -20 0 -17 7 -20 40 -20 39 0 40 1 40 36 0 31 2 35 15 24 8 -7 15
-23 15 -36 l0 -24 209 0 210 0 3 28 c2 16 12 31 25 37 12 5 24 22 27 40 5 21
9 26 15 17 7 -11 9 -10 14 2 7 18 94 59 107 51 4 -3 13 2 20 10 7 8 23 15 35
15 21 0 35 17 35 41 0 5 -20 9 -45 9 -25 0 -45 -4 -45 -10 0 -5 -18 -10 -40
-10 -22 0 -40 5 -40 10 0 6 -18 10 -40 10 -36 0 -40 -2 -40 -25 0 -25 -23 -35
-35 -15 -8 14 -45 13 -45 -1 0 -6 -7 -9 -15 -5 -18 6 -45 -2 -45 -15 0 -5 15
-10 33 -10 25 -1 27 -3 8 -6 -28 -6 -91 5 -91 15 1 10 92 53 131 61 19 4 33
13 32 19 -2 6 14 14 35 18 20 4 42 10 47 14 6 4 36 13 67 20 32 6 62 18 66 27
7 11 28 15 80 17 40 0 72 4 72 7 0 14 90 31 191 36 82 5 109 9 109 19 0 8 7
14 15 14 11 0 15 13 17 53 l1 52 7 -50 c7 -50 7 -50 8 -10 2 52 16 65 71 66
l46 2 -40 7 -40 7 37 2 c20 0 38 6 40 13 5 13 4 13 158 32 63 8 117 13 121 10
11 -6 136 -17 215 -18 46 -1 70 -5 67 -12 -4 -11 38 -34 62 -34 8 0 15 4 15
10 0 6 9 6 23 1 12 -5 22 -14 22 -21 0 -7 10 -17 23 -21 15 -6 21 -5 17 1 -3
6 1 10 9 10 9 0 16 -4 16 -10 0 -5 13 -10 29 -10 29 0 90 -26 103 -44 3 -5 30
-6 60 -3 63 8 98 0 98 -20 0 -11 10 -14 38 -12 20 2 68 -7 107 -19 74 -24 183
-28 198 -8 5 7 7 6 6 -4 -3 -30 1 -40 19 -39 10 0 12 3 4 6 -6 2 -9 9 -6 14 3
6 11 5 20 -2 25 -21 15 -32 -24 -26 -29 3 -39 1 -39 -9 0 -8 3 -14 6 -15 3 0
20 -2 37 -4 28 -4 33 -1 39 23 7 27 7 27 16 5 4 -13 16 -23 24 -23 9 0 13 -5
10 -10 -3 -6 -17 -10 -31 -10 -13 0 -24 -6 -24 -13 0 -14 57 -17 77 -4 9 6 11
3 7 -8 -5 -11 -2 -14 10 -9 9 3 23 0 32 -7 9 -7 23 -14 31 -15 8 -1 26 -14 41
-29 19 -19 32 -24 47 -20 11 4 30 7 42 7 13 0 20 5 17 10 -4 6 4 4 17 -2 35
-18 38 -23 9 -16 -24 7 -24 6 -6 -8 25 -20 8 -20 -18 -1 -23 17 -40 20 -31 5
4 -6 -1 -7 -12 -3 -16 5 -15 3 3 -16 12 -13 34 -23 52 -23 20 -1 32 -6 32 -15
0 -7 3 -13 8 -13 4 0 22 -14 41 -30 38 -35 86 -62 94 -53 4 3 9 -2 13 -11 12
-31 59 -46 144 -46 44 0 80 3 80 8 -1 15 -90 125 -119 146 -16 11 -55 42 -87
67 -68 53 -201 129 -324 184 -129 58 -268 138 -445 255 -88 58 -178 116 -199
128 l-39 23 7 102 c3 56 11 122 16 147 6 25 12 55 15 68 5 21 11 22 86 22 186
0 376 38 501 100 115 57 287 183 411 300 73 69 84 85 142 205 63 132 82 185
129 354 34 120 75 329 81 405 3 43 9 63 21 69 10 6 33 24 51 41 31 29 34 36
43 131 6 55 15 141 20 190 10 90 6 136 -25 330 -13 85 -54 229 -62 221 -4 -4
-49 -221 -160 -773 -24 -120 -41 -183 -50 -183 -35 0 -113 23 -113 34 0 6 13
79 29 161 156 790 163 828 149 836 -32 21 -42 4 -65 -111 -12 -63 -50 -252
-83 -420 -34 -168 -69 -340 -77 -383 -15 -75 -17 -78 -42 -75 -16 2 -25 8 -23
17 1 7 22 111 47 230 24 119 66 329 94 466 28 138 51 260 51 273 0 19 -5 22
-39 22 -37 0 -41 3 -80 63 -105 163 -123 179 -366 331 -139 86 -395 185 -572
220 -169 34 -428 45 -583 25z m512 -115 c284 -44 525 -130 659 -235 84 -66
225 -208 249 -251 l21 -38 -88 0 c-48 0 -126 -5 -173 -10 -82 -9 -645 -87
-802 -111 l-76 -11 -22 -117 c-21 -108 -51 -262 -165 -821 -23 -118 -41 -219
-38 -224 3 -4 -16 -6 -43 -2 -27 3 -77 8 -111 12 -61 6 -62 6 -57 32 3 15 16
77 28 137 13 61 58 283 100 495 42 212 78 393 80 403 4 16 0 18 -37 12 -23 -4
-46 -11 -50 -15 -10 -9 -36 -130 -137 -640 -39 -195 -73 -368 -76 -383 -6 -27
-8 -28 -42 -22 -47 9 -55 14 -48 32 5 13 69 332 173 861 14 73 24 135 21 137
-6 6 -223 -62 -390 -121 -59 -21 -110 -35 -113 -32 -3 3 0 27 6 54 6 27 12 56
14 64 4 29 28 105 37 115 4 5 8 17 8 27 0 10 4 18 8 18 4 0 14 16 21 35 7 19
17 35 22 35 5 0 9 9 9 20 0 11 7 23 15 26 8 4 15 13 15 21 0 22 53 102 68 103
6 0 12 4 12 9 0 4 10 24 23 42 17 25 26 61 35 133 14 110 8 129 -30 105 -13
-8 -36 -20 -53 -27 -28 -11 -28 -11 -11 3 13 10 15 15 6 15 -9 0 -7 5 6 15 23
17 34 19 34 5 0 -5 -8 -10 -17 -11 -10 0 -13 -3 -6 -5 6 -3 23 2 37 11 14 9
31 13 37 9 9 -5 10 -2 6 9 -3 10 -5 17 -3 17 3 0 13 3 23 6 15 5 16 4 3 -6
-13 -10 -12 -11 3 -6 10 3 24 6 30 6 7 0 6 5 -3 10 -11 8 -7 9 15 4 23 -4 26
-3 15 5 -9 6 -10 11 -3 11 6 0 20 3 30 6 15 5 15 4 3 -5 -24 -17 -2 -13 25 5
14 9 33 13 44 9 11 -3 30 1 43 9 56 37 404 43 610 10z m-968 -129 c-10 -8 -23
-15 -28 -15 -6 0 -1 7 10 15 10 8 23 15 28 15 6 0 1 -7 -10 -15z m106 5 c0 -5
-6 -10 -12 -10 -10 0 -10 -2 -1 -8 8 -5 -3 -8 -25 -8 -36 0 -36 0 -9 10 15 5
27 13 27 18 0 4 5 8 10 8 6 0 10 -4 10 -10z m-195 -80 c3 -5 1 -10 -4 -10 -6
0 -11 5 -11 10 0 6 2 10 4 10 3 0 8 -4 11 -10z m-20 -28 c-3 -3 -11 0 -18 7
-9 10 -8 11 6 5 10 -3 15 -9 12 -12z m2060 -1458 c83 -13 171 -24 198 -24 45
0 47 -1 47 -27 0 -60 -82 -329 -130 -428 -58 -117 -139 -264 -160 -290 -35
-43 -165 -145 -177 -140 -8 2 -12 1 -8 -4 3 -5 -8 -19 -24 -30 -31 -23 -46
-27 -36 -11 3 6 -1 7 -10 3 -11 -3 -13 -8 -6 -12 6 -4 -14 -24 -45 -45 -44
-29 -62 -36 -83 -31 -24 6 -25 5 -7 -8 17 -13 18 -14 2 -20 -10 -4 -22 -4 -27
-1 -5 3 -8 0 -7 -7 2 -7 -1 -14 -7 -14 -5 -1 -26 -9 -46 -18 -27 -12 -45 -14
-78 -6 -23 5 -48 8 -54 7 -7 -1 -23 4 -37 11 -17 10 -25 11 -28 2 -2 -6 -8
-11 -13 -11 -4 0 -6 6 -3 13 3 8 -1 15 -8 16 -49 7 -77 9 -101 10 -20 1 -30 7
-34 21 -3 13 -14 20 -29 20 -12 0 -26 5 -29 10 -3 6 -12 10 -18 10 -7 0 -6 -4
3 -11 11 -8 9 -9 -10 -4 -14 4 -29 12 -35 19 -5 6 -25 16 -44 23 -50 18 -161
86 -161 100 0 6 -18 20 -40 30 -22 10 -40 24 -40 31 0 6 -9 12 -21 12 -16 0
-19 4 -15 17 4 10 4 14 0 10 -6 -6 -51 20 -84 50 -38 35 -67 56 -95 70 -16 9
-37 24 -46 34 -9 11 -23 19 -31 19 -8 0 -25 13 -38 30 -14 16 -31 29 -37 30
-7 0 -13 7 -13 15 0 8 -10 20 -22 26 -28 15 -43 33 -65 79 -10 19 -23 41 -30
48 -20 21 -34 50 -26 55 9 4 80 18 223 42 52 9 120 20 150 26 55 10 179 29
320 50 76 11 201 43 232 59 36 20 87 -65 96 -158 6 -57 10 -67 27 -70 29 -4
55 45 55 102 0 43 2 46 23 42 230 -49 633 -93 653 -73 12 11 -136 141 -253
223 -24 16 -43 32 -43 35 0 3 28 22 63 42 45 28 69 36 87 31 14 -3 93 -17 175
-30z m-642 -97 c-2 -4 -14 -5 -25 -1 -13 4 -18 2 -14 -4 4 -6 -10 -18 -29 -28
-34 -16 -37 -16 -53 1 -16 16 -16 17 6 10 15 -4 22 -2 22 7 0 10 2 10 8 1 5
-8 13 -9 22 -3 8 6 11 10 5 10 -5 0 -3 5 5 10 18 11 61 9 53 -3z m-176 -1013
c-3 -3 -12 -4 -19 -1 -8 3 -5 6 6 6 11 1 17 -2 13 -5z m-47 -8 c0 -3 -4 -8
-10 -11 -5 -3 -10 -1 -10 4 0 6 5 11 10 11 6 0 10 -2 10 -4z m255 -6 c14 -7 9
-8 -20 -5 -29 4 -34 3 -20 -4 14 -6 2 -8 -39 -6 -32 2 -61 7 -65 11 -3 4 5 4
19 2 14 -3 36 -2 50 2 33 11 51 10 75 0z m-2630 -930 c-3 -5 -12 -10 -18 -10
-7 0 -6 4 3 10 19 12 23 12 15 0z m-49 -35 c-1 -8 -8 -21 -16 -28 -10 -10 -11
-9 -4 3 5 8 9 18 10 23 3 14 4 17 8 17 2 0 3 -7 2 -15z m2893 -31 c10 -9 -35
-3 -49 6 -11 8 -7 9 15 4 17 -4 32 -8 34 -10z m-2934 -4 c3 -5 1 -10 -4 -10
-6 0 -11 5 -11 10 0 6 2 10 4 10 3 0 8 -4 11 -10z m3149 -115 c3 -8 1 -15 -4
-15 -6 0 -10 7 -10 15 0 8 2 15 4 15 2 0 6 -7 10 -15z m-2816 -27 c-5 -15 -48
-24 -48 -10 0 14 12 22 33 22 10 0 17 -5 15 -12z m2862 -12 c-7 -7 -13 -7 -20
0 -6 6 -3 10 10 10 13 0 16 -4 10 -10z m140 -81 c11 -13 10 -14 -4 -9 -9 3
-16 10 -16 15 0 13 6 11 20 -6z m10 -40 c7 -9 8 -15 2 -15 -5 0 -12 7 -16 15
-7 19 -2 19 14 0z"/>
<path d="M1868 4053 c7 -3 16 -2 19 1 4 3 -2 6 -13 5 -11 0 -14 -3 -6 -6z"/>
<path d="M1720 3920 c0 -22 5 -40 10 -40 6 0 10 18 10 40 0 22 -4 40 -10 40
-5 0 -10 -18 -10 -40z"/>
<path d="M3154 1832 c-36 -24 -65 -142 -44 -181 16 -30 51 -24 68 13 20 41 28
142 12 161 -14 17 -20 18 -36 7z"/>
<path d="M937 303 c-12 -11 -8 -23 8 -23 8 0 15 7 15 15 0 16 -12 20 -23 8z"/>
<path d="M63 203 c-27 -18 -30 -31 -5 -29 12 1 16 -5 14 -22 -2 -22 -1 -22 15
-7 16 16 16 18 0 30 -21 15 -22 29 -2 21 8 -3 15 -1 15 4 0 17 -15 18 -37 3z"/>
<path d="M720 30 c0 -5 5 -10 10 -10 6 0 10 5 10 10 0 6 -4 10 -10 10 -5 0
-10 -4 -10 -10z"/>
</g>
</svg>
